<?xml version="1.0" encoding="utf-8"?>
<!-- Generator: Adobe Illustrator 19.0.0, SVG Export Plug-In . SVG Version: 6.00 Build 0)  -->
<svg version="1.1" id="Camada_1" xmlns="http://www.w3.org/2000/svg" xmlns:xlink="http://www.w3.org/1999/xlink" x="0px" y="0px"
	 viewBox="-255 347 100 100" style="enable-background:new -255 347 100 100;" xml:space="preserve">
<style type="text/css">
	.st0{fill:#FFFFFF;}
</style>
<g>
	<g>
		<polygon class="st0" points="-222.4,357.3 -178.4,360.8 -176.2,357.5 		"/>
		<polygon class="st0" points="-176.6,358.9 -183.1,391.6 -179.5,390.5 		"/>
		<polygon class="st0" points="-178.9,391.5 -162.4,415.6 -159.7,413.7 		"/>
		<g>
			<g>
				<path class="st0" d="M-196.3,436.7c-0.1,0-0.2,0-0.2-0.1c-0.1-0.1-0.2-0.3-0.1-0.4l16.8-45.6c0-0.1,0.1-0.2,0.3-0.2
					c0.1,0,0.3,0,0.3,0.1l19.9,22.8c0.1,0.1,0.1,0.2,0.1,0.3s-0.1,0.2-0.2,0.3l-36.7,22.8C-196.1,436.7-196.2,436.7-196.3,436.7z
					 M-179.3,391.5l-16.2,44l35.4-22L-179.3,391.5z"/>
			</g>
			<g>
				<path class="st0" d="M-159.6,413.9L-159.6,413.9l-39.8-17c-0.1-0.1-0.2-0.2-0.2-0.4s0.1-0.3,0.3-0.3l19.9-5.8
					c0.1,0,0.3,0,0.4,0.1l19.9,22.8c0.1,0.1,0.1,0.3,0,0.4C-159.4,413.9-159.5,413.9-159.6,413.9z M-198.3,396.7l37.4,16l-18.7-21.5
					L-198.3,396.7z"/>
			</g>
			<g>
				<path class="st0" d="M-199.3,397c-0.1,0-0.2,0-0.3-0.1c-0.1-0.1-0.1-0.3,0-0.4l23.1-39.3c0.1-0.1,0.3-0.2,0.4-0.2
					c0.2,0.1,0.3,0.2,0.2,0.4l-3.2,33.5c0,0.1-0.1,0.3-0.3,0.3L-199.3,397C-199.3,396.9-199.3,397-199.3,397z M-176.7,358.9
					l-21.9,37.1l18.8-5.5L-176.7,358.9z"/>
			</g>
			<g>
				<path class="st0" d="M-199.3,397L-199.3,397c-0.1,0-0.2-0.1-0.3-0.2l-23.2-39.3c-0.1-0.1-0.1-0.2,0-0.4c0.1-0.1,0.2-0.2,0.3-0.2
					h46.2c0.1,0,0.2,0.1,0.3,0.2s0.1,0.2,0,0.4l-23,39.3C-199.1,396.9-199.2,397-199.3,397z M-221.8,357.7l22.5,38.2l22.5-38.2
					C-176.8,357.7-221.8,357.7-221.8,357.7z"/>
			</g>
		</g>
	</g>
	<g>
		<path class="st0" d="M-222.4,401.7c0,0.7-0.5,1.5-0.5,1.5l-2.9,4.5c0,0-0.2,0.3-0.2,0.5h3.6v1.6h-5.2v-1.6c0-0.7,0.5-1.5,0.5-1.5
			l2.6-4.1c0,0,0.5-0.8,0.5-1.2v-1.1c0-0.6-0.5-1-1-1s-1,0.5-1,1v1.1l-1.6,0.2v-1.2c0-1.4,1.2-2.6,2.6-2.6s2.6,1.2,2.6,2.6V401.7z"
			/>
		<path class="st0" d="M-216.5,407.5c0,1.4-1.1,2.5-2.5,2.5s-2.5-1.1-2.5-2.5v-7.1c0-1.4,1.1-2.5,2.5-2.5s2.5,1.1,2.5,2.5V407.5z
			 M-220.1,407.5c0,0.5,0.4,1,1,1c0.5,0,1-0.4,1-1v-7.1c0-0.5-0.4-1-1-1c-0.5,0-1,0.4-1,1V407.5z"/>
		<path class="st0" d="M-215.7,398.2l1.6-0.2v11.8h-1.6V398.2z"/>
		<path class="st0" d="M-213.3,398h4.8v1.6h-3.2v3c0.4-0.3,0.8-0.4,1.3-0.4c1.2,0,2.3,1,2.3,2.3v3c0,1.4-1.2,2.6-2.6,2.6
			c-1.4,0-2.6-1.2-2.6-2.6v-0.9l1.6-0.2v1c0,0.6,0.5,1,1,1s1-0.5,1-1v-2.6c0-0.6-0.5-1-1-1c-0.4,0-0.8,0.2-0.9,0.6l-1.7-0.4
			C-213.3,404-213.3,398-213.3,398z"/>
		<path class="st0" d="M-244.3,398v11.8h-2l-2.2-8.8h-0.1c0,0,0.2,2.2,0.2,3.5v5.3h-1.6V398h2l2.2,8.8h0.1c0,0-0.2-2.2-0.2-3.5V398
			H-244.3z"/>
		<path class="st0" d="M-236,407.4c0,1.4-1.2,2.6-2.6,2.6c-1.4,0-2.6-1.2-2.6-2.6v-1.3l1.6-0.2v1.5c0,0.6,0.5,1,1,1c0.6,0,1-0.5,1-1
			v-0.8c0-0.3-0.3-0.7-0.3-0.7l-2.8-3.3c0,0-0.6-0.7-0.6-1.7v-0.5c0-1.4,1.2-2.6,2.6-2.6c1.4,0,2.6,1.2,2.6,2.6v1.1l-1.6,0.2v-1.2
			c0-0.6-0.5-1-1-1c-0.6,0-1,0.5-1,1v0.5c0,0.4,0.2,0.7,0.2,0.7l2.8,3.3c0,0,0.6,0.8,0.6,1.7v0.7H-236z"/>
		<path class="st0" d="M-233.6,405v4.8h-1.6V398h2.5c1.3,0,2.4,1.1,2.4,2.5v2.1c0,1.4-1.1,2.5-2.4,2.5h-0.9V405z M-232.7,403.5
			c0.5,0,0.9-0.4,0.9-0.9v-2.1c0-0.5-0.4-0.9-0.9-0.9h-0.9v3.9H-232.7z"/>
	</g>
	<g>
		<path class="st0" d="M-246.5,421.8h-0.6l0.1-0.8c-0.2,0.2-0.5,0.3-0.7,0.5c-0.2,0.1-0.4,0.2-0.6,0.3c-0.2,0.1-0.4,0.1-0.6,0.1
			c-0.3,0-0.6-0.1-0.8-0.4c-0.3-0.1-0.3-0.4-0.3-0.8l0.7-4.5c0-0.2,0.1-0.4,0.2-0.7c0.1-0.2,0.3-0.4,0.4-0.5
			c0.2-0.2,0.4-0.3,0.6-0.4c0.2-0.1,0.4-0.1,0.7-0.1h0.4c0.2,0,0.4,0,0.6,0.1c0.2,0.1,0.3,0.2,0.4,0.3l0.5-2.8h0.5L-246.5,421.8z
			 M-246.2,416.2c0-0.1,0-0.3,0-0.4c0-0.1-0.1-0.2-0.2-0.3c-0.1-0.1-0.2-0.2-0.3-0.2c-0.1-0.1-0.2-0.1-0.4-0.1h-0.3
			c-0.1,0-0.3,0-0.4,0.1c-0.1,0.1-0.3,0.1-0.4,0.2c-0.1,0.1-0.2,0.2-0.3,0.3s-0.1,0.3-0.1,0.4l-0.7,4.5c0,0.2,0,0.3,0.1,0.4
			c0.1,0.1,0.2,0.2,0.4,0.2s0.4-0.1,0.6-0.2s0.4-0.2,0.6-0.3c0.2-0.2,0.5-0.3,0.7-0.5L-246.2,416.2z"/>
		<path class="st0" d="M-242,421c-0.3,0.2-0.5,0.3-0.7,0.5c-0.2,0.1-0.4,0.2-0.6,0.3c-0.2,0.1-0.4,0.2-0.6,0.2
			c-0.3,0-0.6-0.1-0.8-0.4c-0.2-0.2-0.3-0.5-0.2-0.9l0.7-4.5c0-0.2,0.1-0.4,0.2-0.7c0.1-0.2,0.3-0.4,0.4-0.5
			c0.2-0.2,0.4-0.3,0.6-0.4s0.4-0.1,0.7-0.1h0.3c0.2,0,0.4,0,0.6,0.1c0.2,0.1,0.3,0.2,0.5,0.4c0.1,0.2,0.2,0.3,0.3,0.5
			c0.1,0.2,0.1,0.4,0,0.7l-0.7,4.5c0,0.1,0,0.1,0.1,0.2c0,0.1,0.1,0.1,0.2,0.2c0.1,0.1,0.2,0.1,0.3,0.1c0.1,0,0.2,0.1,0.3,0.1
			l-0.1,0.6c-0.2,0-0.3,0-0.4-0.1c-0.1-0.1-0.3-0.1-0.4-0.2c-0.1-0.1-0.2-0.2-0.3-0.3C-241.9,421.2-241.9,421.1-242,421L-242,421z
			 M-244.3,420.7c0,0.2,0,0.3,0.1,0.4c0.1,0.1,0.2,0.2,0.4,0.2s0.4-0.1,0.6-0.2s0.4-0.2,0.6-0.4c0.2-0.2,0.5-0.3,0.7-0.5l0.6-4
			c0-0.3,0-0.5-0.2-0.7s-0.4-0.3-0.7-0.3h-0.3c-0.1,0-0.3,0-0.4,0.1c-0.1,0.1-0.3,0.1-0.4,0.2c-0.1,0.1-0.2,0.2-0.3,0.3
			c-0.1,0.1-0.1,0.3-0.1,0.4L-244.3,420.7z"/>
		<path class="st0" d="M-234,420.3c0,0.2-0.1,0.4-0.2,0.7c-0.1,0.2-0.3,0.4-0.4,0.5c-0.2,0.2-0.4,0.3-0.6,0.4s-0.4,0.1-0.7,0.1h-0.3
			c-0.2,0-0.4,0-0.6-0.1s-0.3-0.2-0.4-0.3l-0.4,2.2h-0.6l1.4-9.1h0.6l-0.1,0.8c0.2-0.2,0.5-0.3,0.7-0.5c0.2-0.1,0.4-0.2,0.6-0.3
			c0.2-0.1,0.4-0.1,0.6-0.1c0.3,0,0.6,0.1,0.8,0.4c0.2,0.2,0.3,0.5,0.2,0.9L-234,420.3z M-237,420.3c0,0.3,0,0.5,0.2,0.7
			s0.4,0.3,0.7,0.3h0.3c0.1,0,0.3,0,0.4-0.1c0.1-0.1,0.3-0.1,0.4-0.2c0.1-0.1,0.2-0.2,0.3-0.3c0.1-0.1,0.1-0.3,0.1-0.4l0.7-4.4
			c0-0.2,0-0.3-0.1-0.4s-0.2-0.2-0.4-0.2c-0.2,0-0.4,0.1-0.6,0.2s-0.4,0.2-0.6,0.4c-0.2,0.2-0.5,0.3-0.7,0.5L-237,420.3z"/>
		<path class="st0" d="M-229,420.3c0,0.2-0.1,0.4-0.2,0.7c-0.1,0.2-0.3,0.4-0.4,0.5c-0.2,0.2-0.4,0.3-0.6,0.4s-0.4,0.1-0.7,0.1h-0.3
			c-0.2,0-0.4,0-0.6-0.1s-0.3-0.2-0.5-0.4c-0.1-0.2-0.2-0.3-0.3-0.5c-0.1-0.2-0.1-0.4,0-0.7l0.6-4c0-0.2,0.1-0.5,0.2-0.7
			c0.1-0.2,0.3-0.4,0.4-0.5c0.2-0.2,0.4-0.3,0.6-0.4c0.2-0.1,0.4-0.1,0.7-0.1h0.3c0.2,0,0.4,0,0.6,0.1c0.2,0.1,0.3,0.2,0.5,0.4
			c0.1,0.2,0.2,0.3,0.3,0.5c0.1,0.2,0.1,0.4,0,0.7L-229,420.3z M-229.6,420.3l0.6-4c0-0.3,0-0.5-0.2-0.7s-0.4-0.3-0.7-0.3h-0.3
			c-0.1,0-0.3,0-0.4,0.1c-0.1,0.1-0.3,0.1-0.4,0.2s-0.2,0.2-0.3,0.3c-0.1,0.1-0.1,0.3-0.1,0.4l-0.6,4c0,0.3,0,0.5,0.2,0.7
			s0.4,0.3,0.7,0.3h0.3c0.1,0,0.3,0,0.4-0.1c0.1-0.1,0.3-0.1,0.4-0.2c0.1-0.1,0.2-0.2,0.3-0.3C-229.7,420.5-229.6,420.4-229.6,420.3
			z"/>
		<path class="st0" d="M-227.6,415.4l0.1-0.6h1l0.3-1.8h0.6l-0.3,1.8h1.4l-0.1,0.6h-1.4l-0.8,5.4c0,0.1,0,0.1,0.1,0.2
			c0,0.1,0.1,0.1,0.2,0.2c0.1,0.1,0.2,0.1,0.3,0.1c0.1,0,0.2,0.1,0.3,0.1l-0.1,0.6c-0.2,0-0.3,0-0.5-0.1s-0.3-0.1-0.4-0.3
			c-0.1-0.1-0.2-0.2-0.3-0.4c-0.1-0.1-0.1-0.3-0.1-0.5l0.8-5.4h-1.1V415.4z"/>
		<path class="st0" d="M-222.9,421.3c0.1,0,0.3,0,0.4-0.1c0.1-0.1,0.3-0.1,0.4-0.2c0.1-0.1,0.2-0.2,0.3-0.3c0.1-0.1,0.1-0.3,0.1-0.4
			l0.1-0.9h0.6l-0.1,0.9c0,0.2-0.1,0.5-0.2,0.7c-0.1,0.2-0.3,0.4-0.4,0.5c-0.2,0.2-0.4,0.3-0.6,0.4s-0.4,0.1-0.7,0.1h-0.3
			c-0.2,0-0.4,0-0.6-0.1c-0.2-0.1-0.3-0.2-0.5-0.4c-0.1-0.2-0.2-0.3-0.3-0.5c-0.1-0.2-0.1-0.4,0-0.7l0.6-4c0-0.2,0.1-0.5,0.2-0.7
			c0.1-0.2,0.3-0.4,0.4-0.5c0.2-0.2,0.4-0.3,0.6-0.4c0.2-0.1,0.4-0.1,0.7-0.1h0.3c0.2,0,0.4,0,0.6,0.1c0.2,0.1,0.3,0.2,0.5,0.4
			c0.1,0.2,0.2,0.3,0.3,0.5c0.1,0.2,0.1,0.4,0,0.7c0,0.2-0.1,0.4-0.2,0.6c-0.1,0.2-0.1,0.3-0.2,0.4c-0.1,0.1-0.2,0.2-0.3,0.3
			l-2.8,1.7l-0.2,1c0,0.3,0,0.5,0.2,0.7c0.2,0.2,0.4,0.3,0.7,0.3H-222.9z M-221.7,417.1c0.1-0.1,0.2-0.1,0.3-0.2
			c0.1-0.1,0.1-0.2,0.2-0.3c0.1-0.1,0.1-0.2,0.1-0.4c0-0.3,0-0.5-0.2-0.7s-0.4-0.3-0.7-0.3h-0.3c-0.1,0-0.3,0-0.4,0.1
			c-0.1,0.1-0.3,0.1-0.4,0.2c-0.1,0.1-0.2,0.2-0.3,0.3c-0.1,0.1-0.1,0.3-0.1,0.4l-0.3,2.1L-221.7,417.1z M-221.7,412.5L-221.7,412.5
			l-1.2,1.2h-0.6l1.9-1.9h0.1l1.3,1.9h-0.6L-221.7,412.5z"/>
		<path class="st0" d="M-220.1,421.8l1.1-7.1h0.6l-0.1,0.8c0.2-0.2,0.5-0.3,0.7-0.5c0.2-0.1,0.4-0.2,0.6-0.3s0.4-0.1,0.6-0.1
			c0.3,0,0.6,0.1,0.8,0.4c0.2,0.2,0.3,0.5,0.2,0.9l-0.9,6h-0.6l0.9-6c0-0.2,0-0.3-0.1-0.4c-0.1-0.1-0.2-0.2-0.4-0.2
			s-0.4,0.1-0.6,0.2c-0.2,0.1-0.4,0.2-0.6,0.4c-0.2,0.2-0.5,0.3-0.7,0.5l-0.9,5.5h-0.6V421.8z"/>
		<path class="st0" d="M-211.8,419.4h0.6l-0.1,0.9c0,0.2-0.1,0.4-0.2,0.7c-0.1,0.2-0.3,0.4-0.4,0.5c-0.2,0.2-0.4,0.3-0.6,0.4
			s-0.4,0.1-0.7,0.1h-0.3c-0.2,0-0.4,0-0.6-0.1c-0.2-0.1-0.3-0.2-0.5-0.4c-0.1-0.2-0.2-0.3-0.3-0.5c-0.1-0.2-0.1-0.4,0-0.7l0.6-4
			c0-0.2,0.1-0.5,0.2-0.7c0.1-0.2,0.3-0.4,0.4-0.5c0.2-0.2,0.4-0.3,0.6-0.4c0.2-0.1,0.4-0.1,0.7-0.1h0.3c0.2,0,0.4,0,0.6,0.1
			c0.2,0.1,0.3,0.2,0.5,0.4c0.1,0.2,0.2,0.3,0.3,0.5c0.1,0.2,0.1,0.4,0,0.7l-0.2,0.9h-0.6l0.2-0.9c0-0.3,0-0.5-0.2-0.7
			s-0.4-0.3-0.7-0.3h-0.3c-0.1,0-0.3,0-0.4,0.1c-0.1,0.1-0.3,0.1-0.4,0.2c-0.1,0.1-0.2,0.2-0.3,0.3c-0.1,0.1-0.1,0.3-0.1,0.4l-0.6,4
			c0,0.3,0,0.5,0.2,0.7c0.2,0.2,0.4,0.3,0.7,0.3h0.3c0.1,0,0.3,0,0.4-0.1c0.1-0.1,0.3-0.1,0.4-0.2c0.1-0.1,0.2-0.2,0.3-0.3
			c0.1-0.1,0.1-0.3,0.1-0.4L-211.8,419.4z"/>
		<path class="st0" d="M-209.3,414.7h0.6l-0.9,6c0,0.1,0,0.1,0.1,0.2c0,0.1,0.1,0.1,0.2,0.2c0.1,0.1,0.2,0.1,0.3,0.1
			c0.1,0,0.2,0.1,0.3,0.1l-0.1,0.6c-0.2,0-0.3,0-0.5-0.1s-0.3-0.1-0.4-0.3c-0.1-0.1-0.2-0.2-0.3-0.4c-0.1-0.1-0.1-0.3-0.1-0.5
			L-209.3,414.7z M-208.4,413.5h-0.6l0.2-1.3h0.6L-208.4,413.5z"/>
		<path class="st0" d="M-204.9,421c-0.3,0.2-0.5,0.3-0.7,0.5c-0.2,0.1-0.4,0.2-0.6,0.3c-0.2,0.1-0.4,0.2-0.6,0.2
			c-0.3,0-0.6-0.1-0.8-0.4c-0.2-0.2-0.3-0.5-0.2-0.9l0.7-4.5c0-0.2,0.1-0.4,0.2-0.7c0.1-0.2,0.3-0.4,0.4-0.5
			c0.2-0.2,0.4-0.3,0.6-0.4s0.4-0.1,0.7-0.1h0.2c0.2,0,0.4,0,0.6,0.1c0.2,0.1,0.3,0.2,0.5,0.4c0.1,0.2,0.2,0.3,0.3,0.5
			c0.1,0.2,0.1,0.4,0,0.7l-0.7,4.5c0,0.1,0,0.1,0.1,0.2c0,0.1,0.1,0.1,0.2,0.2c0.1,0.1,0.2,0.1,0.3,0.1c0.1,0,0.2,0.1,0.3,0.1
			l-0.1,0.6c-0.2,0-0.3,0-0.4-0.1c-0.1-0.1-0.3-0.1-0.4-0.2c-0.1-0.1-0.2-0.2-0.3-0.3C-204.9,421.2-204.9,421.1-204.9,421
			L-204.9,421z M-207.3,420.7c0,0.2,0,0.3,0.1,0.4c0.1,0.1,0.2,0.2,0.4,0.2s0.4-0.1,0.6-0.2s0.4-0.2,0.6-0.4
			c0.2-0.2,0.5-0.3,0.7-0.5l0.6-4c0-0.3,0-0.5-0.2-0.7c-0.2-0.2-0.4-0.3-0.7-0.3h-0.3c-0.1,0-0.3,0-0.4,0.1
			c-0.1,0.1-0.3,0.1-0.4,0.2c-0.1,0.1-0.2,0.2-0.3,0.3s-0.1,0.3-0.1,0.4L-207.3,420.7z"/>
		<path class="st0" d="M-197.7,421c-0.3,0.2-0.5,0.3-0.7,0.5c-0.2,0.1-0.4,0.2-0.6,0.3c-0.2,0.1-0.4,0.2-0.6,0.2
			c-0.3,0-0.6-0.1-0.8-0.4c-0.2-0.2-0.3-0.5-0.2-0.9l0.7-4.5c0-0.2,0.1-0.4,0.2-0.7c0.1-0.2,0.3-0.4,0.4-0.5
			c0.2-0.2,0.4-0.3,0.6-0.4s0.4-0.1,0.7-0.1h0.3c0.2,0,0.4,0,0.6,0.1c0.2,0.1,0.3,0.2,0.5,0.4c0.1,0.2,0.2,0.3,0.3,0.5
			c0.1,0.2,0.1,0.4,0,0.7l-0.7,4.5c0,0.1,0,0.1,0.1,0.2c0,0.1,0.1,0.1,0.2,0.2c0.1,0.1,0.2,0.1,0.3,0.1c0.1,0,0.2,0.1,0.3,0.1
			l-0.1,0.6c-0.2,0-0.3,0-0.4-0.1c-0.1-0.1-0.3-0.1-0.4-0.2c-0.1-0.1-0.2-0.2-0.3-0.3C-197.7,421.2-197.7,421.1-197.7,421
			L-197.7,421z M-200.1,420.7c0,0.2,0,0.3,0.1,0.4s0.2,0.2,0.4,0.2c0.2,0,0.4-0.1,0.6-0.2s0.4-0.2,0.6-0.4c0.2-0.2,0.5-0.3,0.7-0.5
			l0.6-4c0-0.3,0-0.5-0.2-0.7s-0.4-0.3-0.7-0.3h-0.3c-0.1,0-0.3,0-0.4,0.1c-0.1,0.1-0.3,0.1-0.4,0.2c-0.1,0.1-0.2,0.2-0.3,0.3
			c-0.1,0.1-0.1,0.3-0.1,0.4L-200.1,420.7z"/>
		<path class="st0" d="M-191.8,420.3c0,0.2-0.1,0.4-0.2,0.7c-0.1,0.2-0.3,0.4-0.4,0.5c-0.2,0.2-0.4,0.3-0.6,0.4s-0.4,0.1-0.7,0.1
			h-0.3c-0.2,0-0.4,0-0.6-0.1c-0.2-0.1-0.3-0.2-0.5-0.4c-0.1-0.2-0.2-0.3-0.3-0.5c-0.1-0.2-0.1-0.4,0-0.7l0.6-4
			c0-0.2,0.1-0.5,0.2-0.7c0.1-0.2,0.3-0.4,0.4-0.5c0.2-0.2,0.4-0.3,0.6-0.4c0.2-0.1,0.4-0.1,0.7-0.1h0.3c0.2,0,0.4,0,0.6,0.1
			c0.2,0.1,0.3,0.2,0.5,0.4c0.1,0.2,0.2,0.3,0.3,0.5c0.1,0.2,0.1,0.4,0,0.7L-191.8,420.3z M-192.4,420.3l0.6-4c0-0.3,0-0.5-0.2-0.7
			c-0.2-0.2-0.4-0.3-0.7-0.3h-0.3c-0.1,0-0.3,0-0.4,0.1c-0.1,0.1-0.3,0.1-0.4,0.2c-0.1,0.1-0.2,0.2-0.3,0.3
			c-0.1,0.1-0.1,0.3-0.1,0.4l-0.6,4c0,0.3,0,0.5,0.2,0.7c0.2,0.2,0.4,0.3,0.7,0.3h0.3c0.1,0,0.3,0,0.4-0.1c0.1-0.1,0.3-0.1,0.4-0.2
			c0.1-0.1,0.2-0.2,0.3-0.3C-192.5,420.5-192.5,420.4-192.4,420.3z"/>
		<path class="st0" d="M-185.6,421c-0.3,0.2-0.5,0.3-0.7,0.5c-0.2,0.1-0.4,0.2-0.6,0.3c-0.2,0.1-0.4,0.2-0.6,0.2
			c-0.3,0-0.6-0.1-0.8-0.4c-0.2-0.2-0.3-0.5-0.2-0.9l0.7-4.5c0-0.2,0.1-0.4,0.2-0.7c0.1-0.2,0.3-0.4,0.4-0.5
			c0.2-0.2,0.4-0.3,0.6-0.4c0.2-0.1,0.4-0.1,0.7-0.1h0.3c0.2,0,0.4,0,0.6,0.1s0.3,0.2,0.5,0.4c0.1,0.2,0.2,0.3,0.3,0.5
			c0.1,0.2,0.1,0.4,0,0.7l-0.8,4.5c0,0.1,0,0.1,0.1,0.2c0,0.1,0.1,0.1,0.2,0.2c0.1,0.1,0.2,0.1,0.3,0.1c0.1,0,0.2,0.1,0.3,0.1
			l-0.1,0.6c-0.2,0-0.3,0-0.4-0.1c-0.1-0.1-0.3-0.1-0.4-0.2c-0.1-0.1-0.2-0.2-0.3-0.3C-185.5,421.2-185.6,421.1-185.6,421
			L-185.6,421z M-188,420.7c0,0.2,0,0.3,0.1,0.4c0.1,0.1,0.2,0.2,0.4,0.2c0.2,0,0.4-0.1,0.6-0.2c0.2-0.1,0.4-0.2,0.6-0.4
			c0.2-0.2,0.5-0.3,0.7-0.5l0.6-4c0-0.3,0-0.5-0.2-0.7c-0.2-0.2-0.4-0.3-0.7-0.3h-0.1c-0.1,0-0.3,0-0.4,0.1
			c-0.1,0.1-0.3,0.1-0.4,0.2c-0.1,0.1-0.2,0.2-0.3,0.3s-0.1,0.3-0.1,0.4L-188,420.7z"/>
		<path class="st0" d="M-183.2,415.4l0.1-0.6h1l0.3-1.8h0.6l-0.3,1.8h1.4l-0.1,0.6h-1.4l-0.8,5.4c0,0.1,0,0.1,0.1,0.2
			c0,0.1,0.1,0.1,0.2,0.2c0.1,0.1,0.2,0.1,0.3,0.1c0.1,0,0.2,0.1,0.3,0.1l-0.1,0.6c-0.2,0-0.3,0-0.5-0.1c-0.2-0.1-0.3-0.1-0.4-0.3
			c-0.1-0.1-0.2-0.2-0.3-0.4c-0.1-0.1-0.1-0.3-0.1-0.5l0.8-5.4h-1.1V415.4z"/>
		<path class="st0" d="M-176.7,420.3c0,0.2-0.1,0.4-0.2,0.7c-0.1,0.2-0.3,0.4-0.4,0.5c-0.2,0.2-0.4,0.3-0.6,0.4s-0.4,0.1-0.7,0.1
			h-0.3c-0.2,0-0.4,0-0.6-0.1c-0.2-0.1-0.3-0.2-0.5-0.4c-0.1-0.2-0.2-0.3-0.3-0.5s-0.1-0.4,0-0.7l0.6-4c0-0.2,0.1-0.5,0.2-0.7
			s0.3-0.4,0.4-0.5c0.2-0.2,0.4-0.3,0.6-0.4c0.2-0.1,0.4-0.1,0.7-0.1h0.3c0.2,0,0.4,0,0.6,0.1c0.2,0.1,0.3,0.2,0.5,0.4
			c0.1,0.2,0.2,0.3,0.3,0.5s0.1,0.4,0,0.7L-176.7,420.3z M-177.3,420.3l0.6-4c0-0.3,0-0.5-0.2-0.7c-0.2-0.2-0.4-0.3-0.7-0.3h-0.3
			c-0.1,0-0.3,0-0.4,0.1s-0.3,0.1-0.4,0.2c-0.1,0.1-0.2,0.2-0.3,0.3s-0.1,0.3-0.1,0.4l-0.6,4c0,0.3,0,0.5,0.2,0.7
			c0.2,0.2,0.4,0.3,0.7,0.3h0.3c0.1,0,0.3,0,0.4-0.1c0.1-0.1,0.3-0.1,0.4-0.2c0.1-0.1,0.2-0.2,0.3-0.3
			C-177.4,420.5-177.4,420.4-177.3,420.3z"/>
	</g>
</g>
</svg>
