<?xml version="1.0" encoding="utf-8"?>
<!-- Generator: Adobe Illustrator 18.0.0, SVG Export Plug-In . SVG Version: 6.00 Build 0)  -->
<!DOCTYPE svg PUBLIC "-//W3C//DTD SVG 1.1//EN" "http://www.w3.org/Graphics/SVG/1.1/DTD/svg11.dtd">
<svg version="1.1" id="Camada_1" xmlns="http://www.w3.org/2000/svg" xmlns:xlink="http://www.w3.org/1999/xlink" x="0px" y="0px"
	 viewBox="0 0 1000 1000" enable-background="new 0 0 1000 1000" xml:space="preserve">
<g>
	<g>
		<g>
			<defs>
				<rect id="SVGID_1_" width="1000" height="1000"/>
			</defs>
			<clipPath id="SVGID_2_">
				<use xlink:href="#SVGID_1_"  overflow="visible"/>
			</clipPath>
			<g clip-path="url(#SVGID_2_)">
				<g>
					<g>
						<defs>
							<path id="SVGID_3_" d="M1022.9,1188.4H-22.9c-86.5,0-156.6-70.1-156.6-156.6V-13.5c0-86.5,70.1-156.6,156.6-156.6H1023
								c86.5,0,156.6,70.1,156.6,156.6v1045.3C1179.6,1118.3,1109.5,1188.4,1022.9,1188.4z"/>
						</defs>
						<clipPath id="SVGID_4_">
							<use xlink:href="#SVGID_3_"  overflow="visible"/>
						</clipPath>
						<g clip-path="url(#SVGID_4_)">
							<g>
								<g>
									<defs>
										<rect id="SVGID_5_" x="-174.9" y="-167.4" width="1355.7" height="1355.7"/>
									</defs>
									<clipPath id="SVGID_6_">
										<use xlink:href="#SVGID_5_"  overflow="visible"/>
									</clipPath>
									<g clip-path="url(#SVGID_6_)">
									</g>
								</g>
								<g>
									<g>
										<defs>
											<path id="SVGID_7_" d="M1022.9,1188.4H-22.9c-86.5,0-156.6-70.1-156.6-156.6V-13.5c0-86.5,70.1-156.6,156.6-156.6H1023
												c86.5,0,156.6,70.1,156.6,156.6v1045.3C1179.6,1118.3,1109.5,1188.4,1022.9,1188.4z"/>
										</defs>
										<defs>
											<path id="SVGID_8_" d="M1022.9,1188.4H-22.9c-86.5,0-156.6-70.1-156.6-156.6V-13.5c0-86.5,70.1-156.6,156.6-156.6H1023
												c86.5,0,156.6,70.1,156.6,156.6v1045.3C1179.6,1118.3,1109.5,1188.4,1022.9,1188.4z"/>
										</defs>
										<defs>
											<path id="SVGID_9_" d="M1022.9,1188.4H-22.9c-86.5,0-156.6-70.1-156.6-156.6V-13.5c0-86.5,70.1-156.6,156.6-156.6H1023
												c86.5,0,156.6,70.1,156.6,156.6v1045.3C1179.6,1118.3,1109.5,1188.4,1022.9,1188.4z"/>
										</defs>
										<clipPath id="SVGID_10_">
											<use xlink:href="#SVGID_7_"  overflow="visible"/>
										</clipPath>
										<clipPath id="SVGID_11_" clip-path="url(#SVGID_10_)">
											<use xlink:href="#SVGID_8_"  overflow="visible"/>
										</clipPath>
										<clipPath id="SVGID_12_" clip-path="url(#SVGID_11_)">
											<use xlink:href="#SVGID_9_"  overflow="visible"/>
										</clipPath>
										
											<rect x="-178.3" y="-170.1" opacity="0.69" clip-path="url(#SVGID_12_)" fill="#E8D807" enable-background="new    " width="1355.8" height="1355.8"/>
									</g>
								</g>
								<g>
									<defs>
										<path id="SVGID_13_" d="M1022.9,1188.4H-22.9c-86.5,0-156.6-70.1-156.6-156.6V-13.5c0-86.5,70.1-156.6,156.6-156.6H1023
											c86.5,0,156.6,70.1,156.6,156.6v1045.3C1179.6,1118.3,1109.5,1188.4,1022.9,1188.4z"/>
									</defs>
									<clipPath id="SVGID_14_">
										<use xlink:href="#SVGID_13_"  overflow="visible"/>
									</clipPath>
									<g clip-path="url(#SVGID_14_)">
										<path fill="#FFFFFF" d="M461,663l-81.6-30.7V183.8l148,56v67.7c0,4.4,3.6,8,8,8h23.1c4.4,0,8-3.6,8-8v-68.8l146.4-55
											v135.7c0,4.4,3.6,8,8,8h23.9c4.4,0,8-3.6,8-8V139.7c0-2.6-1.3-5-3.4-6.5c-2.1-1.5-4.9-1.8-7.3-0.9l-195,72.7l-167.5-62.2
											v-4.6c0-2.6-1.3-5.1-3.4-6.5c-2.2-1.5-4.9-1.8-7.3-0.9l-10.8,4.1l-6.7-2.5c-2.4-0.9-5.2-0.6-7.3,0.9
											c-2.1,1.5-3.4,3.9-3.4,6.5v1.7l-181.9,68.9c-3.1,1.2-5.1,4.1-5.1,7.4v514.9c0,2.6,1.3,5.1,3.4,6.6
											c1.3,0.9,2.9,1.4,4.5,1.4c1,0,1.9-0.2,2.8-0.5L359,666.2l86.9,32.4c0.9,0.3,1.9,0.5,2.8,0.5c3,0,5.9-1.7,7.2-4.6l9.6-20.7
											c0.9-2,1-4.3,0.1-6.4C464.7,665.4,463.1,663.8,461,663z M340.4,184.6v449.3l-147.2,54.6V239.9L340.4,184.6z"/>
										<path fill="#FFFFFF" d="M646,334.7c-110.6,0-200.5,90-200.5,200.6c0,97.4,151.5,328.7,200.5,328.7
											c14.1,0,41.2-12.6,114-121.3l3.3-4.9c25-38.8,83.2-136.1,83.2-202.5C846.6,424.6,756.6,334.7,646,334.7z M807.6,535.2
											c0,93.3-130.8,266.1-161.4,288.4c-30.7-23.2-161.7-198-161.7-288.4c0-89.1,72.5-161.6,161.6-161.6
											C734.3,373.6,806.8,446.2,807.6,535.2z"/>
										<path fill="#FFFFFF" d="M646,404.7c-72,0-130.5,58.5-130.5,130.5S574.1,665.7,646,665.7c71.1,0,129.7-58.5,130.5-130.5
											C776.5,463.2,718,404.7,646,404.7z M737.6,535.2c0,50.5-41.1,91.5-91.5,91.5c-50.5,0-91.5-41.1-91.5-91.5
											c0-50.5,41.1-91.5,91.5-91.5C696.5,443.7,737.6,484.7,737.6,535.2z"/>
									</g>
								</g>
							</g>
						</g>
					</g>
				</g>
			</g>
		</g>
	</g>
</g>
</svg>
